<?xml version="1.0" encoding="UTF-8" standalone="no"?>
<!-- Created with Inkscape (http://www.inkscape.org/) -->

<svg
   width="1409.2152"
   height="259.77658"
   viewBox="0 0 1409.2152 259.77658"
   version="1.1"
   id="svg5"
   xml:space="preserve"
   xmlns:xlink="http://www.w3.org/1999/xlink"
   xmlns="http://www.w3.org/2000/svg"
   xmlns:svg="http://www.w3.org/2000/svg"><defs
     id="defs2"><symbol
       id="Recycling"><title
         id="title7498">Recycling</title><g
         style="stroke:none"
         id="g7512"><path
           style="stroke-width:0.264583"
           d="m 14.684375,3.9026042 -1.389063,0.79375 -0.926041,-1.5875 C 12.236979,2.8773437 11.972396,2.7119792 11.608594,2.7119792 H 8.8304687 C 9.0289062,2.9104167 9.0619792,2.9765625 9.1611979,3.1419271 L 10.88099,6.1184896 9.4919271,6.9122396 H 12.93151 Z"
           id="path7500" /><path
           style="stroke-width:0.264583"
           d="m 14.254427,12.038542 h 1.389063 c 0.826822,0 1.322916,-0.892969 0.926041,-1.5875 l -1.752864,-3.069167 -2.38125,1.3890625 z"
           id="path7502" /><path
           style="stroke-width:0.264583"
           d="m 12.170833,17.065625 v -1.5875 h 1.852084 c 0.264583,0 0.529166,-0.132292 0.727604,-0.463021 l 1.389062,-2.38125 C 15.875,12.7 15.775781,12.7 15.610417,12.7 h -3.439584 v -1.5875 l -1.719791,2.976562 z"
           id="path7504" /><path
           style="stroke-width:0.264583"
           d="m 5.3578125,12.7 -0.6945313,1.190625 c -0.396875,0.727604 0.099219,1.5875 0.8929688,1.5875 H 9.0619792 V 12.7 Z"
           id="path7506" /><path
           style="stroke-width:0.264583"
           d="m 2.0505208,8.4005208 1.3890625,0.79375 -0.9260416,1.5875002 C 2.38125,11.013281 2.38125,11.310937 2.5466146,11.641667 l 1.3559896,2.38125 c 0.066146,-0.264584 0.099219,-0.33073 0.1984375,-0.496094 L 5.8208333,10.55026 7.2098958,11.34401 5.4901042,8.3674479 Z"
           id="path7508" /><path
           style="stroke-width:0.264583"
           d="M 9.2604167,4.6302083 8.5989583,3.4395833 c -0.4299479,-0.6945312 -1.4221354,-0.6945312 -1.8190104,0 l -1.7528646,3.0427084 2.38125,1.3890625 z"
           id="path7510" /></g></symbol><symbol
       id="ToiletsMen"><title
         id="title4892">Toilets - Men</title><g
         style="stroke:none"
         id="g4898"><circle
           cx="36"
           cy="9"
           r="5"
           id="circle4894" /><path
           d="m 24,22 v 15.5 a 2.25,2.25 0 0 0 4.5,0 V 23 h 1 v 39.5 a 3,3 0 0 0 6,0 V 40 h 1 v 22.5 a 3,3 0 0 0 6,0 V 23 h 1 v 14.5 a 2.25,2.25 0 0 0 4.5,0 V 22 A 7,7 0 0 0 41,15 H 31 a 7,7 0 0 0 -7,7 z"
           id="path4896" /></g></symbol></defs><g
     id="layer1"><g
       aria-label="Transport Odpadów Medycznych"
       id="text861"
       style="font-weight:bold;font-size:64px;font-family:Montserrat;-inkscape-font-specification:'Montserrat Bold';letter-spacing:-0.5px;word-spacing:0px;fill:#008000;stroke-width:0;stroke-linecap:round"><path
         d="m 331.6798,238.84857 v -36.352 h -14.336 v -8.448 h 39.04 v 8.448 h -14.336 v 36.352 z"
         style="fill:#333333"
         id="path1004" /><path
         d="m 359.97986,238.84857 v -34.432 h 9.536 v 9.728 l -1.344,-2.816 q 1.536,-3.648 4.928,-5.504 3.392,-1.92 8.256,-1.92 v 9.216 q -0.64,-0.064 -1.152,-0.064 -0.512,-0.064 -1.088,-0.064 -4.096,0 -6.656,2.368 -2.496,2.304 -2.496,7.232 v 16.256 z"
         style="fill:#333333"
         id="path1006" /><path
         d="m 405.68787,238.84857 v -6.72 l -0.64,-1.472 v -12.032 q 0,-3.2 -1.984,-4.992 -1.92,-1.792 -5.952,-1.792 -2.752,0 -5.44,0.896 -2.624,0.832 -4.48,2.304 l -3.584,-6.976 q 2.816,-1.984 6.784,-3.072 3.968,-1.088 8.064,-1.088 7.872,0 12.224,3.712 4.352,3.712 4.352,11.584 v 19.648 z m -10.496,0.512 q -4.032,0 -6.912,-1.344 -2.88,-1.408 -4.416,-3.776 -1.536,-2.368 -1.536,-5.312 0,-3.072 1.472,-5.376 1.536,-2.304 4.8,-3.584 3.264,-1.344 8.512,-1.344 h 9.152 v 5.824 h -8.064 q -3.52,0 -4.864,1.152 -1.28,1.152 -1.28,2.88 0,1.92 1.472,3.072 1.536,1.088 4.16,1.088 2.496,0 4.48,-1.152 1.984,-1.216 2.88,-3.52 l 1.536,4.608 q -1.088,3.328 -3.968,5.056 -2.88,1.728 -7.424,1.728 z"
         style="fill:#333333"
         id="path1008" /><path
         d="m 444.48391,203.90457 q 4.096,0 7.296,1.664 3.264,1.6 5.12,4.992 1.856,3.328 1.856,8.576 v 19.712 h -9.984 v -18.176 q 0,-4.16 -1.856,-6.144 -1.792,-1.984 -5.12,-1.984 -2.368,0 -4.288,1.024 -1.856,0.96 -2.944,3.008 -1.024,2.048 -1.024,5.248 v 17.024 h -9.984 v -34.432 h 9.536 v 9.536 l -1.792,-2.88 q 1.856,-3.456 5.312,-5.312 3.456,-1.856 7.872,-1.856 z"
         style="fill:#333333"
         id="path1010" /><path
         d="m 478.86391,239.36057 q -4.416,0 -8.512,-1.024 -4.032,-1.088 -6.4,-2.688 l 3.328,-7.168 q 2.368,1.472 5.568,2.432 3.264,0.896 6.4,0.896 3.456,0 4.864,-0.832 1.472,-0.832 1.472,-2.304 0,-1.216 -1.152,-1.792 -1.088,-0.64 -2.944,-0.96 -1.856,-0.32 -4.096,-0.64 -2.176,-0.32 -4.416,-0.832 -2.24,-0.576 -4.096,-1.664 -1.856,-1.088 -3.008,-2.944 -1.088,-1.856 -1.088,-4.8 0,-3.264 1.856,-5.76 1.92,-2.496 5.504,-3.904 3.584,-1.472 8.576,-1.472 3.52,0 7.168,0.768 3.648,0.768 6.08,2.24 l -3.328,7.104 q -2.496,-1.472 -5.056,-1.984 -2.496,-0.576 -4.864,-0.576 -3.328,0 -4.864,0.896 -1.536,0.896 -1.536,2.304 0,1.28 1.088,1.92 1.152,0.64 3.008,1.024 1.856,0.384 4.032,0.704 2.24,0.256 4.48,0.832 2.24,0.576 4.032,1.664 1.856,1.024 3.008,2.88 1.152,1.792 1.152,4.736 0,3.2 -1.92,5.696 -1.92,2.432 -5.568,3.84 -3.584,1.408 -8.768,1.408 z"
         style="fill:#333333"
         id="path1012" /><path
         d="m 521.11591,239.36057 q -4.352,0 -7.616,-1.92 -3.264,-1.92 -5.12,-5.824 -1.792,-3.968 -1.792,-9.984 0,-6.08 1.728,-9.984 1.728,-3.904 4.992,-5.824 3.264,-1.92 7.808,-1.92 4.864,0 8.704,2.24 3.904,2.176 6.144,6.144 2.304,3.968 2.304,9.344 0,5.44 -2.304,9.408 -2.24,3.968 -6.144,6.144 -3.84,2.176 -8.704,2.176 z m -20.352,11.904 v -46.848 h 9.536 v 7.04 l -0.192,10.24 0.64,10.176 v 19.392 z m 18.624,-20.096 q 2.496,0 4.416,-1.152 1.984,-1.152 3.136,-3.264 1.216,-2.176 1.216,-5.12 0,-3.008 -1.216,-5.12 -1.152,-2.112 -3.136,-3.264 -1.92,-1.152 -4.416,-1.152 -2.496,0 -4.48,1.152 -1.984,1.152 -3.136,3.264 -1.152,2.112 -1.152,5.12 0,2.944 1.152,5.12 1.152,2.112 3.136,3.264 1.984,1.152 4.48,1.152 z"
         style="fill:#333333"
         id="path1014" /><path
         d="m 560.80795,239.36057 q -5.504,0 -9.792,-2.304 -4.224,-2.304 -6.72,-6.272 -2.432,-4.032 -2.432,-9.152 0,-5.184 2.432,-9.152 2.496,-4.032 6.72,-6.272 4.288,-2.304 9.792,-2.304 5.44,0 9.728,2.304 4.288,2.24 6.72,6.208 2.432,3.968 2.432,9.216 0,5.12 -2.432,9.152 -2.432,3.968 -6.72,6.272 -4.288,2.304 -9.728,2.304 z m 0,-8.192 q 2.496,0 4.48,-1.152 1.984,-1.152 3.136,-3.264 1.152,-2.176 1.152,-5.12 0,-3.008 -1.152,-5.12 -1.152,-2.112 -3.136,-3.264 -1.984,-1.152 -4.48,-1.152 -2.496,0 -4.48,1.152 -1.984,1.152 -3.2,3.264 -1.152,2.112 -1.152,5.12 0,2.944 1.152,5.12 1.216,2.112 3.2,3.264 1.984,1.152 4.48,1.152 z"
         style="fill:#333333"
         id="path1016" /><path
         d="m 585.84399,238.84857 v -34.432 h 9.536 v 9.728 l -1.344,-2.816 q 1.536,-3.648 4.928,-5.504 3.392,-1.92 8.256,-1.92 v 9.216 q -0.64,-0.064 -1.152,-0.064 -0.512,-0.064 -1.088,-0.064 -4.096,0 -6.656,2.368 -2.496,2.304 -2.496,7.232 v 16.256 z"
         style="fill:#333333"
         id="path1018" /><path
         d="m 627.96794,239.36057 q -6.08,0 -9.472,-3.072 -3.392,-3.136 -3.392,-9.28 v -30.208 h 9.984 v 30.08 q 0,2.176 1.152,3.392 1.152,1.152 3.136,1.152 2.368,0 4.032,-1.28 l 2.688,7.04 q -1.536,1.088 -3.712,1.664 -2.112,0.512 -4.416,0.512 z m -18.176,-26.496 v -7.68 h 23.872 v 7.68 z"
         style="fill:#333333"
         id="path1020" /><path
         d="m 681.30396,239.61657 q -5.312,0 -9.856,-1.728 -4.48,-1.728 -7.808,-4.864 -3.264,-3.136 -5.12,-7.36 -1.792,-4.224 -1.792,-9.216 0,-4.992 1.792,-9.216 1.856,-4.224 5.184,-7.36 3.328,-3.136 7.808,-4.864 4.48,-1.728 9.728,-1.728 5.312,0 9.728,1.728 4.48,1.728 7.744,4.864 3.328,3.136 5.184,7.36 1.856,4.16 1.856,9.216 0,4.992 -1.856,9.28 -1.856,4.224 -5.184,7.36 -3.264,3.072 -7.744,4.8 -4.416,1.728 -9.664,1.728 z m -0.064,-8.832 q 3.008,0 5.504,-1.024 2.56,-1.024 4.48,-2.944 1.92,-1.92 2.944,-4.544 1.088,-2.624 1.088,-5.824 0,-3.2 -1.088,-5.824 -1.024,-2.624 -2.944,-4.544 -1.856,-1.92 -4.416,-2.944 -2.56,-1.024 -5.568,-1.024 -3.008,0 -5.568,1.024 -2.496,1.024 -4.416,2.944 -1.92,1.92 -3.008,4.544 -1.024,2.624 -1.024,5.824 0,3.136 1.024,5.824 1.088,2.624 2.944,4.544 1.92,1.92 4.48,2.944 2.56,1.024 5.568,1.024 z"
         style="fill:#333333"
         id="path1022" /><path
         d="m 727.13996,239.36057 q -4.864,0 -8.768,-2.176 -3.904,-2.24 -6.208,-6.208 -2.24,-3.968 -2.24,-9.344 0,-5.44 2.24,-9.408 2.304,-3.968 6.208,-6.144 3.904,-2.176 8.768,-2.176 4.352,0 7.616,1.92 3.264,1.92 5.056,5.824 1.792,3.904 1.792,9.984 0,6.016 -1.728,9.984 -1.728,3.904 -4.992,5.824 -3.2,1.92 -7.744,1.92 z m 1.728,-8.192 q 2.432,0 4.416,-1.152 1.984,-1.152 3.136,-3.264 1.216,-2.176 1.216,-5.12 0,-3.008 -1.216,-5.12 -1.152,-2.112 -3.136,-3.264 -1.984,-1.152 -4.416,-1.152 -2.496,0 -4.48,1.152 -1.984,1.152 -3.2,3.264 -1.152,2.112 -1.152,5.12 0,2.944 1.152,5.12 1.216,2.112 3.2,3.264 1.984,1.152 4.48,1.152 z m 9.024,7.68 v -7.04 l 0.192,-10.24 -0.64,-10.176 v -20.032 h 9.984 v 47.488 z"
         style="fill:#333333"
         id="path1024" /><path
         d="m 776.49592,239.36057 q -4.352,0 -7.616,-1.92 -3.264,-1.92 -5.12,-5.824 -1.792,-3.968 -1.792,-9.984 0,-6.08 1.728,-9.984 1.728,-3.904 4.992,-5.824 3.264,-1.92 7.808,-1.92 4.864,0 8.704,2.24 3.904,2.176 6.144,6.144 2.304,3.968 2.304,9.344 0,5.44 -2.304,9.408 -2.24,3.968 -6.144,6.144 -3.84,2.176 -8.704,2.176 z m -20.352,11.904 v -46.848 h 9.536 v 7.04 l -0.192,10.24 0.64,10.176 v 19.392 z m 18.624,-20.096 q 2.496,0 4.416,-1.152 1.984,-1.152 3.136,-3.264 1.216,-2.176 1.216,-5.12 0,-3.008 -1.216,-5.12 -1.152,-2.112 -3.136,-3.264 -1.92,-1.152 -4.416,-1.152 -2.496,0 -4.48,1.152 -1.984,1.152 -3.136,3.264 -1.152,2.112 -1.152,5.12 0,2.944 1.152,5.12 1.152,2.112 3.136,3.264 1.984,1.152 4.48,1.152 z"
         style="fill:#333333"
         id="path1026" /><path
         d="m 820.3479,238.84857 v -6.72 l -0.64,-1.472 v -12.032 q 0,-3.2 -1.984,-4.992 -1.92,-1.792 -5.952,-1.792 -2.752,0 -5.44,0.896 -2.624,0.832 -4.48,2.304 l -3.584,-6.976 q 2.816,-1.984 6.784,-3.072 3.968,-1.088 8.064,-1.088 7.872,0 12.224,3.712 4.352,3.712 4.352,11.584 v 19.648 z m -10.496,0.512 q -4.032,0 -6.912,-1.344 -2.88,-1.408 -4.416,-3.776 -1.536,-2.368 -1.536,-5.312 0,-3.072 1.472,-5.376 1.536,-2.304 4.8,-3.584 3.264,-1.344 8.512,-1.344 h 9.152 v 5.824 h -8.064 q -3.52,0 -4.864,1.152 -1.28,1.152 -1.28,2.88 0,1.92 1.472,3.072 1.536,1.088 4.16,1.088 2.496,0 4.48,-1.152 1.984,-1.216 2.88,-3.52 l 1.536,4.608 q -1.088,3.328 -3.968,5.056 -2.88,1.728 -7.424,1.728 z"
         style="fill:#333333"
         id="path1028" /><path
         d="m 853.25592,239.36057 q -4.864,0 -8.768,-2.176 -3.904,-2.24 -6.208,-6.208 -2.24,-3.968 -2.24,-9.344 0,-5.44 2.24,-9.408 2.304,-3.968 6.208,-6.144 3.904,-2.176 8.768,-2.176 4.352,0 7.616,1.92 3.264,1.92 5.056,5.824 1.792,3.904 1.792,9.984 0,6.016 -1.728,9.984 -1.728,3.904 -4.992,5.824 -3.2,1.92 -7.744,1.92 z m 1.728,-8.192 q 2.432,0 4.416,-1.152 1.984,-1.152 3.136,-3.264 1.216,-2.176 1.216,-5.12 0,-3.008 -1.216,-5.12 -1.152,-2.112 -3.136,-3.264 -1.984,-1.152 -4.416,-1.152 -2.496,0 -4.48,1.152 -1.984,1.152 -3.2,3.264 -1.152,2.112 -1.152,5.12 0,2.944 1.152,5.12 1.216,2.112 3.2,3.264 1.984,1.152 4.48,1.152 z m 9.024,7.68 v -7.04 l 0.192,-10.24 -0.64,-10.176 v -20.032 h 9.984 v 47.488 z"
         style="fill:#333333"
         id="path1030" /><path
         d="m 898.64389,239.36057 q -5.504,0 -9.792,-2.304 -4.224,-2.304 -6.72,-6.272 -2.432,-4.032 -2.432,-9.152 0,-5.184 2.432,-9.152 2.496,-4.032 6.72,-6.272 4.288,-2.304 9.792,-2.304 5.44,0 9.728,2.304 4.288,2.24 6.72,6.208 2.432,3.968 2.432,9.216 0,5.12 -2.432,9.152 -2.432,3.968 -6.72,6.272 -4.288,2.304 -9.728,2.304 z m 0,-8.192 q 2.496,0 4.48,-1.152 1.984,-1.152 3.136,-3.264 1.152,-2.176 1.152,-5.12 0,-3.008 -1.152,-5.12 -1.152,-2.112 -3.136,-3.264 -1.984,-1.152 -4.48,-1.152 -2.496,0 -4.48,1.152 -1.984,1.152 -3.2,3.264 -1.152,2.112 -1.152,5.12 0,2.944 1.152,5.12 1.216,2.112 3.2,3.264 1.984,1.152 4.48,1.152 z m -5.952,-31.168 8.64,-9.216 h 10.752 l -11.584,9.216 z"
         style="fill:#333333"
         id="path1032" /><path
         d="m 930.59197,238.84857 -12.416,-34.432 h 9.408 l 10.304,29.632 h -4.48 l 10.752,-29.632 h 8.448 l 10.432,29.632 h -4.48 l 10.624,-29.632 h 8.832 l -12.48,34.432 h -9.664 l -9.152,-25.408 h 2.944 l -9.472,25.408 z"
         style="fill:#333333"
         id="path1034" /><path
         d="m 1000.504,238.84857 v -44.8 h 8.576 l 19.072,31.616 h -4.544 l 18.752,-31.616 h 8.512 l 0.128,44.8 h -9.728 l -0.064,-29.888 H 1043 l -14.976,25.152 h -4.672 l -15.296,-25.152 h 2.176 v 29.888 z"
         style="fill:#333333"
         id="path1036" /><path
         d="m 1077.508,239.36057 q -5.888,0 -10.368,-2.304 -4.416,-2.304 -6.848,-6.272 -2.432,-4.032 -2.432,-9.152 0,-5.184 2.368,-9.152 2.432,-4.032 6.592,-6.272 4.16,-2.304 9.408,-2.304 5.056,0 9.088,2.176 4.096,2.112 6.464,6.144 2.368,3.968 2.368,9.536 0,0.576 -0.064,1.344 -0.064,0.704 -0.128,1.344 h -27.968 v -5.824 h 22.72 l -3.84,1.728 q 0,-2.688 -1.088,-4.672 -1.088,-1.984 -3.008,-3.072 -1.92,-1.152 -4.48,-1.152 -2.56,0 -4.544,1.152 -1.92,1.088 -3.008,3.136 -1.088,1.984 -1.088,4.736 v 1.536 q 0,2.816 1.216,4.992 1.28,2.112 3.52,3.264 2.304,1.088 5.376,1.088 2.752,0 4.8,-0.832 2.112,-0.832 3.84,-2.496 l 5.312,5.76 q -2.368,2.688 -5.952,4.16 -3.584,1.408 -8.256,1.408 z"
         style="fill:#333333"
         id="path1038" /><path
         d="m 1115.0881,239.36057 q -4.864,0 -8.768,-2.176 -3.904,-2.24 -6.208,-6.208 -2.24,-3.968 -2.24,-9.344 0,-5.44 2.24,-9.408 2.304,-3.968 6.208,-6.144 3.904,-2.176 8.768,-2.176 4.352,0 7.616,1.92 3.264,1.92 5.056,5.824 1.792,3.904 1.792,9.984 0,6.016 -1.728,9.984 -1.728,3.904 -4.992,5.824 -3.2,1.92 -7.744,1.92 z m 1.728,-8.192 q 2.432,0 4.416,-1.152 1.984,-1.152 3.136,-3.264 1.216,-2.176 1.216,-5.12 0,-3.008 -1.216,-5.12 -1.152,-2.112 -3.136,-3.264 -1.984,-1.152 -4.416,-1.152 -2.496,0 -4.48,1.152 -1.984,1.152 -3.2,3.264 -1.152,2.112 -1.152,5.12 0,2.944 1.152,5.12 1.216,2.112 3.2,3.264 1.984,1.152 4.48,1.152 z m 9.024,7.68 v -7.04 l 0.192,-10.24 -0.64,-10.176 v -20.032 h 9.984 v 47.488 z"
         style="fill:#333333"
         id="path1040" /><path
         d="m 1148.444,251.77657 q -2.688,0 -5.312,-0.832 -2.624,-0.832 -4.288,-2.304 l 3.648,-7.104 q 1.152,1.024 2.624,1.6 1.536,0.576 3.008,0.576 2.112,0 3.328,-1.024 1.28,-0.96 2.304,-3.264 l 1.792,-4.224 0.768,-1.088 12.352,-29.696 h 9.6 l -15.552,36.544 q -1.664,4.16 -3.84,6.528 -2.112,2.368 -4.736,3.328 -2.56,0.96 -5.696,0.96 z m 5.888,-11.584 -15.36,-35.776 h 10.304 l 11.904,28.8 z"
         style="fill:#333333"
         id="path1042" /><path
         d="m 1197.5441,239.36057 q -5.568,0 -9.92,-2.24 -4.352,-2.304 -6.848,-6.336 -2.432,-4.032 -2.432,-9.152 0,-5.184 2.432,-9.152 2.496,-4.032 6.848,-6.272 4.352,-2.304 9.92,-2.304 5.44,0 9.472,2.304 4.032,2.24 5.952,6.464 l -7.744,4.16 q -1.344,-2.432 -3.392,-3.584 -1.984,-1.152 -4.352,-1.152 -2.56,0 -4.608,1.152 -2.048,1.152 -3.264,3.264 -1.152,2.112 -1.152,5.12 0,3.008 1.152,5.12 1.216,2.112 3.264,3.264 2.048,1.152 4.608,1.152 2.368,0 4.352,-1.088 2.048,-1.152 3.392,-3.648 l 7.744,4.224 q -1.92,4.16 -5.952,6.464 -4.032,2.24 -9.472,2.24 z"
         style="fill:#333333"
         id="path1044" /><path
         d="m 1215.604,238.84857 v -6.016 l 20.352,-24.064 1.728,3.328 h -21.632 v -7.68 h 29.696 v 6.016 l -20.352,24.064 -1.792,-3.328 h 22.72 v 7.68 z"
         style="fill:#333333"
         id="path1046" /><path
         d="m 1273.152,203.90457 q 4.096,0 7.296,1.664 3.264,1.6 5.12,4.992 1.856,3.328 1.856,8.576 v 19.712 h -9.984 v -18.176 q 0,-4.16 -1.856,-6.144 -1.792,-1.984 -5.12,-1.984 -2.368,0 -4.288,1.024 -1.856,0.96 -2.944,3.008 -1.024,2.048 -1.024,5.248 v 17.024 h -9.984 v -34.432 h 9.536 v 9.536 l -1.792,-2.88 q 1.856,-3.456 5.312,-5.312 3.456,-1.856 7.872,-1.856 z"
         style="fill:#333333"
         id="path1048" /><path
         d="m 1299.66,251.77657 q -2.688,0 -5.312,-0.832 -2.624,-0.832 -4.288,-2.304 l 3.648,-7.104 q 1.152,1.024 2.624,1.6 1.536,0.576 3.008,0.576 2.112,0 3.328,-1.024 1.28,-0.96 2.304,-3.264 l 1.792,-4.224 0.768,-1.088 12.352,-29.696 h 9.6 l -15.552,36.544 q -1.664,4.16 -3.84,6.528 -2.112,2.368 -4.736,3.328 -2.56,0.96 -5.696,0.96 z m 5.888,-11.584 -15.36,-35.776 h 10.304 l 11.904,28.8 z"
         style="fill:#333333"
         id="path1050" /><path
         d="m 1348.76,239.36057 q -5.568,0 -9.92,-2.24 -4.352,-2.304 -6.848,-6.336 -2.432,-4.032 -2.432,-9.152 0,-5.184 2.432,-9.152 2.496,-4.032 6.848,-6.272 4.352,-2.304 9.92,-2.304 5.44,0 9.472,2.304 4.032,2.24 5.952,6.464 l -7.744,4.16 q -1.344,-2.432 -3.392,-3.584 -1.984,-1.152 -4.352,-1.152 -2.56,0 -4.608,1.152 -2.048,1.152 -3.264,3.264 -1.152,2.112 -1.152,5.12 0,3.008 1.152,5.12 1.216,2.112 3.264,3.264 2.048,1.152 4.608,1.152 2.368,0 4.352,-1.088 2.048,-1.152 3.392,-3.648 l 7.744,4.224 q -1.92,4.16 -5.952,6.464 -4.032,2.24 -9.472,2.24 z"
         style="fill:#333333"
         id="path1052" /><path
         d="m 1390.116,203.90457 q 4.096,0 7.296,1.664 3.264,1.6 5.12,4.992 1.856,3.328 1.856,8.576 v 19.712 h -9.984 v -18.176 q 0,-4.16 -1.856,-6.144 -1.792,-1.984 -5.12,-1.984 -2.368,0 -4.288,1.024 -1.856,0.96 -2.944,3.008 -1.024,2.048 -1.024,5.248 v 17.024 h -9.984 v -47.488 h 9.984 v 22.592 l -2.24,-2.88 q 1.856,-3.456 5.312,-5.312 3.456,-1.856 7.872,-1.856 z"
         style="fill:#333333"
         id="path1054" /></g><g
       aria-label="AM-MED"
       id="text603"
       style="font-weight:500;font-size:233.333px;font-family:Montserrat;-inkscape-font-specification:'Montserrat Medium';letter-spacing:5px;fill:#008000;stroke-width:0;stroke-linecap:round"><path
         d="M 312.51662,163.3331 383.91652,4.5776367e-6 h 54.13325 L 509.44967,163.3331 H 452.51642 L 399.78316,26.1333 h 21.46664 l -52.73326,137.1998 z m 42.46661,-28.46663 13.99998,-39.666604 h 75.13322 l 13.99998,39.666604 z"
         style="font-weight:900;-inkscape-font-specification:'Montserrat Heavy'"
         id="path1159" /><path
         d="M 523.31626,163.3331 V 4.5776367e-6 h 45.2666 L 633.9161,106.63318 H 610.11613 L 673.58271,4.5776367e-6 h 45.2666 L 719.31598,163.3331 h -50.1666 l -0.46666,-87.733206 h 7.93332 L 633.2161,148.63312 h -24.26663 l -45.2666,-73.033226 h 9.79999 V 163.3331 Z"
         style="font-weight:900;-inkscape-font-specification:'Montserrat Heavy'"
         id="path1161" /><path
         d="M 748.11607,115.73317 V 76.06656 h 69.9999 v 39.66661 z"
         style="font-weight:900;-inkscape-font-specification:'Montserrat Heavy'"
         id="path1163" /><path
         d="M 846.91576,163.3331 V 4.5776367e-6 h 45.2666 L 957.5156,106.63318 H 933.71564 L 997.18221,4.5776367e-6 h 45.26659 L 1042.9155,163.3331 h -50.16662 l -0.46666,-87.733206 h 7.93328 l -43.3999,73.033226 h -24.26663 l -45.2666,-73.033226 h 9.79999 V 163.3331 Z"
         style="font-weight:900;-inkscape-font-specification:'Montserrat Heavy'"
         id="path1165" /><path
         d="m 1124.9155,60.666583 h 72.7999 v 39.666607 h -72.7999 z m 3.7333,61.133247 h 81.6666 V 163.3331 H 1074.5156 V 4.5776367e-6 H 1207.282 V 41.533277 h -78.6332 z"
         style="font-weight:900;-inkscape-font-specification:'Montserrat Heavy'"
         id="path1167" /><path
         d="M 1236.5488,163.3331 V 4.5776367e-6 h 80.4998 q 27.3,0 48.0666,10.0333184223633 20.7667,9.799986 32.4333,27.999959 11.6667,18.199974 11.6667,43.399937 0,25.433301 -11.6667,43.866601 -11.6666,18.19997 -32.4333,28.23329 -20.7666,9.79999 -48.0666,9.79999 z m 55.0665,-42.93327 h 23.1 q 11.6667,0 20.3,-4.43333 8.8666,-4.43332 13.7666,-13.06665 4.9,-8.866649 4.9,-21.466631 0,-12.366649 -4.9,-20.999969 -4.9,-8.633321 -13.7666,-13.066648 -8.6333,-4.433327 -20.3,-4.433327 h -23.1 z"
         style="font-weight:900;-inkscape-font-specification:'Montserrat Heavy'"
         id="path1169" /></g><use
       transform="matrix(18.098299,0,0,18.098299,-37.110939,-49.08221)"
       height="100%"
       width="100%"
       y="0"
       x="0"
       xlink:href="#Recycling"
       style="fill:#008000;stroke:none;stroke-opacity:1"
       id="use10008" /></g></svg>
