<?xml version="1.0" standalone="no"?>
<!DOCTYPE svg PUBLIC "-//W3C//DTD SVG 20010904//EN"
 "http://www.w3.org/TR/2001/REC-SVG-20010904/DTD/svg10.dtd">
<svg version="1.0" xmlns="http://www.w3.org/2000/svg"
 width="700.000000pt" height="700.000000pt" viewBox="0 0 700.000000 700.000000"
 preserveAspectRatio="xMidYMid meet">
<metadata>
Created by potrace 1.14, written by Peter Selinger 2001-2017
</metadata>
<g transform="translate(0.000000,700.000000) scale(0.100000,-0.100000)"
fill="#000000" stroke="none">
<path d="M3257 6907 c10 -11 27 -30 39 -41 35 -36 136 -199 262 -426 29 -51
61 -106 80 -135 6 -11 15 -26 19 -34 3 -8 36 -64 71 -125 36 -61 77 -132 91
-157 14 -25 108 -188 209 -362 100 -174 182 -320 182 -324 0 -7 -267 -163
-544 -318 -39 -22 -80 -45 -90 -51 -15 -9 182 -12 800 -12 l820 -1 39 67 c22
37 44 76 51 87 6 11 91 157 189 325 97 168 189 325 203 350 14 25 32 56 42 70
9 14 20 32 23 40 3 8 69 121 145 250 76 129 138 236 136 238 -2 3 -61 -27
-103 -53 -9 -5 -64 -37 -121 -70 -58 -33 -113 -64 -122 -70 -9 -5 -39 -22 -65
-36 -26 -15 -91 -52 -143 -82 -52 -30 -98 -52 -102 -49 -4 4 -106 178 -228
386 -122 208 -232 394 -246 412 -39 50 -122 101 -200 123 -68 18 -109 19 -764
19 l-692 1 19 -22z"/>
<path d="M2573 6816 c-28 -7 -78 -26 -110 -42 -67 -33 -179 -140 -208 -199
-10 -22 -24 -47 -31 -55 -6 -8 -26 -42 -44 -75 -17 -33 -35 -64 -40 -70 -4 -5
-18 -30 -32 -55 -23 -42 -192 -335 -236 -410 -12 -19 -27 -46 -35 -60 -7 -14
-60 -106 -117 -205 -57 -99 -147 -256 -201 -349 l-97 -170 125 -73 c69 -40
127 -73 130 -73 2 0 16 -9 31 -19 15 -10 196 -117 402 -237 206 -119 391 -227
411 -240 l37 -23 263 461 c145 254 273 477 284 497 31 55 138 243 152 266 7
11 15 26 19 34 4 8 36 63 71 123 35 60 63 113 63 117 0 5 7 14 16 22 22 18 15
36 -76 199 -80 142 -94 167 -188 340 -59 107 -162 213 -247 254 -105 51 -239
67 -342 42z"/>
<path d="M6084 4691 c-5 -5 -29 -20 -54 -34 -25 -13 -82 -47 -128 -73 -46 -27
-108 -63 -138 -79 -29 -17 -59 -36 -66 -43 -7 -7 -15 -12 -20 -12 -4 0 -63
-33 -130 -73 -68 -40 -227 -133 -354 -207 -175 -102 -230 -138 -226 -150 3 -8
43 -80 87 -160 45 -80 97 -172 115 -205 18 -33 141 -253 273 -490 276 -496
358 -642 372 -670 10 -19 21 -20 373 -21 320 0 371 2 435 18 179 46 326 200
365 385 15 70 8 196 -15 263 -10 30 -86 174 -170 320 -83 146 -160 281 -171
300 -11 19 -80 141 -154 270 -74 129 -146 255 -160 280 -28 50 -220 384 -222
387 -2 2 -7 -1 -12 -6z"/>
<path d="M1157 4223 c-1 -1 -258 -4 -571 -7 -313 -3 -570 -7 -572 -9 -2 -1 40
-27 93 -57 53 -30 114 -66 137 -79 23 -12 124 -70 226 -128 102 -58 187 -107
189 -109 2 -2 -63 -117 -144 -256 -81 -139 -160 -273 -174 -298 -14 -25 -52
-92 -84 -147 -66 -115 -85 -174 -81 -252 6 -98 41 -190 139 -356 20 -33 40
-69 45 -80 6 -11 20 -36 31 -55 12 -19 127 -221 257 -449 l236 -414 21 69 c27
85 23 79 220 419 89 154 248 429 352 610 105 182 200 346 211 365 12 19 39 67
61 107 23 39 45 74 50 77 5 3 65 -26 133 -65 67 -39 143 -82 168 -96 24 -14
105 -60 180 -103 74 -42 145 -83 158 -89 28 -15 29 -19 -43 104 -53 88 -75
127 -113 195 -13 25 -28 50 -32 55 -5 6 -20 33 -35 60 -43 78 -40 74 -313 545
l-258 445 -243 0 c-133 0 -243 -1 -244 -2z"/>
<path d="M4773 2813 c-121 -212 -578 -1001 -594 -1028 -11 -16 -22 -37 -26
-45 -4 -8 -36 -64 -72 -125 -35 -60 -64 -114 -64 -120 0 -5 67 -127 150 -270
83 -143 160 -276 170 -295 171 -299 485 -836 491 -838 4 -1 6 164 5 368 l-1
370 464 0 c255 0 465 0 467 0 22 2 110 36 141 54 77 46 131 116 271 356 76
129 147 251 158 270 10 19 100 172 198 341 98 168 181 313 185 322 6 15 3 16
-22 6 -16 -6 -31 -10 -34 -9 -3 0 -30 -2 -60 -6 -41 -5 -1631 -10 -1746 -5
l-21 1 1 370 c0 204 -2 370 -5 370 -3 0 -28 -39 -56 -87z"/>
<path d="M1561 2126 c-88 -146 -310 -533 -332 -581 -16 -33 -32 -78 -36 -100
-9 -50 -10 -168 -2 -215 24 -132 136 -283 257 -344 111 -56 103 -56 1040 -56
l862 0 0 663 -1 664 -884 0 -885 0 -19 -31z"/>
</g>
</svg>
